<svg t="1638840952171" class="asa-icon" viewBox="0 0 1024 1024" version="1.1" xmlns="http://www.w3.org/2000/svg" width="16" height="16"><path d="M570.3 846c16.4 16.4 16.4 41 0 57.3-8.2 8.2-19.1 13.7-30 13.7-10.9 0-19.1-2.7-27.3-10.9L133.4 540.2c-8.2-8.2-13.7-19.1-13.7-30 0-10.9 5.5-21.8 13.7-30l379.6-366c16.4-16.4 41-16.4 57.3 2.7 16.4 16.4 13.7 41 0 57.3l-349.5 336L570.3 846z m0 0" fill="currentColor" p-id="4676"></path><path d="M733.1 741.6c11.3 11.3 11.3 28.2 0 39.5-5.6 5.6-13.2 9.4-20.7 9.4s-13.2-1.9-18.8-7.5L432 530.8c-5.6-5.6-9.4-13.2-9.4-20.7s3.8-15.1 9.4-20.7l261.6-252.2c11.3-11.3 28.2-11.3 39.5 1.9 11.3 11.3 9.4 28.2 0 39.5L492.2 510.1l240.9 231.5z m0 0" fill="currentColor" p-id="4677"></path><path d="M801.2 492.1m-55 0a55 55 0 1 0 110 0 55 55 0 1 0-110 0Z" fill="currentColor" p-id="4678"></path></svg>