<svg t="1638840837300" class="asa-icon" viewBox="0 0 1024 1024" version="1.1" xmlns="http://www.w3.org/2000/svg" width="16" height="16"><path d="M953.6 179.2c0-19.2-12.8-38.4-32-38.4h-38.4s-83.2 0-166.4-38.4C627.2 76.8 569.6 32 569.6 32L544 12.8C531.2 6.4 512 6.4 499.2 12.8l-19.2 19.2s-57.6 38.4-147.2 76.8c-83.2 32-160 38.4-166.4 38.4H128c-19.2 0-32 19.2-32 38.4V576c0 102.4 57.6 211.2 153.6 307.2C339.2 972.8 448 1024 524.8 1024s185.6-51.2 275.2-140.8c102.4-96 153.6-204.8 153.6-307.2V179.2z m-211.2 243.2l-236.8 236.8c-6.4 6.4-19.2 12.8-32 12.8s-25.6-6.4-32-12.8L326.4 537.6c-6.4-6.4-12.8-19.2-12.8-32s6.4-25.6 12.8-32c19.2-19.2 44.8-19.2 64 0l83.2 83.2 204.8-204.8c19.2-19.2 44.8-19.2 64 0 6.4 6.4 12.8 19.2 12.8 32 0 19.2 0 32-12.8 38.4z" fill="currentColor" p-id="3284"></path></svg>