<svg t="1638846542191" class="asa-icon" viewBox="0 0 1024 1024" version="1.1" xmlns="http://www.w3.org/2000/svg" p-id="1381" width="200" height="200"><path d="M13.524272 512.036718a498.50467 498.50467 0 1 1 498.437049 498.437049A498.437048 498.437048 0 0 1 13.524272 512.036718z" fill="currentColor" p-id="1382"></path><path d="M40.572816 593.182351a556.253312 556.253312 0 0 1 636.114139-550.099768A498.437048 498.437048 0 0 0 56.260972 723.623956 555.441855 555.441855 0 0 1 40.572816 593.182351z" fill="#FFFFFF" p-id="1383"></path><path d="M978.886815 430.891086a555.847584 555.847584 0 0 1-555.847584 555.847583 568.763263 568.763263 0 0 1-80.131312-5.680194 498.572291 498.572291 0 0 0 620.425983-680.541372 556.253312 556.253312 0 0 1 15.552913 130.373983z" fill="#F8B62D" p-id="1384"></path><path d="M511.961321 1023.998039a511.961321 511.961321 0 1 1 459.28428-738.492878A13.524272 13.524272 0 0 1 946.699047 297.609384a484.912776 484.912776 0 1 0 36.718399 327.355006 13.524272 13.524272 0 1 1 26.304709 6.288787 510.000301 510.000301 0 0 1-497.760834 392.744862z" fill="currentColor" p-id="1385"></path><path d="M1010.46599 525.560991a13.524272 13.524272 0 0 1-13.524272-13.524273A486.873796 486.873796 0 0 0 989.300505 426.089969a13.524272 13.524272 0 0 1 26.642816-4.733495 514.39569 514.39569 0 0 1 8.046942 90.680244 13.524272 13.524272 0 0 1-13.524273 13.524273z" fill="currentColor" p-id="1386"></path><path d="M758.238316 693.53245L581.543701 517.040699l176.491751-176.491751a29.550535 29.550535 0 0 0 0-41.925243L730.310694 270.56084a29.685777 29.685777 0 0 0-41.925244 0L511.893699 447.052591 335.46957 270.56084a29.618156 29.618156 0 0 0-41.857623 0l-27.927621 27.86a29.685777 29.685777 0 0 0 0 41.925244l176.491751 176.491751-176.491751 176.491751a29.685777 29.685777 0 0 0 0 41.925244l27.927621 27.86a29.618156 29.618156 0 0 0 41.857623 0l176.491751-176.491751 176.559372 176.491751a29.618156 29.618156 0 0 0 41.857622 0l27.860001-27.86a29.550535 29.550535 0 0 0 0-41.72238z" fill="#FFFFFF" p-id="1387"></path><path d="M709.415693 785.565122a43.074807 43.074807 0 0 1-30.497233-12.645195L511.961321 605.962788 344.868939 772.919927a43.074807 43.074807 0 0 1-60.859225 0l-27.86-27.927622a43.074807 43.074807 0 0 1 0-60.859224l166.889517-167.092382-166.889517-166.957139a43.074807 43.074807 0 0 1 0-60.859225L284.009714 261.229092a43.142428 43.142428 0 0 1 60.859225 0L511.961321 428.11861l166.957139-166.889518a43.142428 43.142428 0 0 1 60.859224 0l27.927622 27.860001a43.074807 43.074807 0 0 1 0 60.859224L600.88341 517.040699l166.957139 166.957139a43.142428 43.142428 0 0 1 0 60.859225l-27.927622 27.927622a42.871943 42.871943 0 0 1-30.497234 12.780437z m-197.454372-217.876024l186.093984 186.093984a16.431991 16.431991 0 0 0 22.720777 0l27.927622-27.927622a16.026262 16.026262 0 0 0 0-22.720777L562.60972 517.040699l186.093984-186.026363a16.093884 16.093884 0 0 0 0-22.788398l-27.860001-27.927622a16.161505 16.161505 0 0 0-22.788398 0L511.961321 466.662785 325.934958 280.298316a16.229127 16.229127 0 0 0-22.788399 0l-27.86 27.927622a15.755777 15.755777 0 0 0-4.733496 11.360388 16.026262 16.026262 0 0 0 4.665874 11.42801l186.093985 186.026363L275.218937 703.337547a16.161505 16.161505 0 0 0 0 22.720777l27.927622 27.927622a16.431991 16.431991 0 0 0 22.720777 0z" fill="#f56c6c" p-id="1388"></path></svg>