<svg t="1638840821490" class="asa-icon" viewBox="0 0 1024 1024" version="1.1" xmlns="http://www.w3.org/2000/svg" width="16" height="16"><path d="M433.352848 0.049369h-10.97087c-3.656957 1.828478-7.313913 1.828478-10.97087 3.656957h-3.656957a522.249993 522.249993 0 0 0 5.485435 1020.290931h7.313914a44.614872 44.614872 0 0 0 42.055002-54.854351 40.921346 40.921346 0 0 0-34.741089-31.084132A429.692417 429.692417 0 0 1 85.027719 512.023313a443.936264 443.936264 0 0 1 34.741089-171.876967c8.045305-18.284784 19.199023-16.456305 26.512936-1.828478 5.485435 10.97087 27.427176 56.68283 42.055003 87.766962 9.142392 20.113262 18.284784 25.598697 25.598697 25.598697a32.912611 32.912611 0 0 0 25.598697-27.427176C301.702406 177.411771 455.294589 82.330896 455.294589 82.330896A44.37717 44.37717 0 0 0 475.407851 31.133501 41.323611 41.323611 0 0 0 433.352848 0.049369z m157.24914 1023.947888h10.970871c3.656957-1.828478 7.313913-1.828478 10.97087-3.656956h3.656957A522.249993 522.249993 0 0 0 610.715251 0.049369H603.401337a44.614872 44.614872 0 0 0-42.055002 54.854351 38.928305 38.928305 0 0 0 34.741089 31.084132C793.563088 124.385898 938.012879 303.576779 938.012879 512.023313a431.136915 431.136915 0 0 1-34.741089 171.876967c-7.313913 18.284784-18.284784 16.456305-25.598697 1.828478-5.485435-10.97087-27.427176-56.68283-42.055003-87.766961-9.142392-20.113262-18.284784-25.598697-27.427175-25.598698a33.771996 33.771996 0 0 0-23.770219 27.427176c-62.168265 246.84458-215.760448 341.925456-215.760448 341.925456a44.37717 44.37717 0 0 0-20.113262 51.197394 43.334937 43.334937 0 0 0 42.055002 31.084132z m0 0" fill="currentColor"></path></svg>