<svg t="1638840752491" class="asa-icon" viewBox="0 0 1107 1024" version="1.1" xmlns="http://www.w3.org/2000/svg" p-id="2352"><path d="M1059.860487 295.741922a511.926705 511.926705 0 0 1-818.769623 585.364064 51.235367 51.235367 0 1 1 71.160232-73.864321 409.527132 409.527132 0 1 0-96.493274-447.028573l69.381225 5.835139a25.617683 25.617683 0 0 1 18.928622 40.13437l-136.627644 196.046438a50.950726 50.950726 0 0 1-45.756029 21.77503 45.827189 45.827189 0 0 1-39.351608-29.602656L1.707846 378.999393a25.617683 25.617683 0 0 1 26.115804-34.512713l81.905427 7.116024a511.926705 511.926705 0 0 1 949.98909-55.647301z" fill="#C2850A" p-id="2353"></path><path d="M594.259093 335.520491l315.026344 176.406214-315.026344 176.406214zM468.234323 322.92513h62.976805v378.07431H468.234323z" fill="#C2850A" p-id="2354"></path></svg>