<svg t="1638840767925" class="asa-icon" viewBox="0 0 1024 1024" version="1.1" xmlns="http://www.w3.org/2000/svg" p-id="2517"><path d="M950.4768 69.632H73.5232C35.7376 69.632 5.2224 100.2496 5.12 138.0352v747.8272c0 37.6832 30.6176 68.4032 68.4032 68.4032h876.9536c37.6832 0 68.4032-30.6176 68.4032-68.4032V138.0352c-0.1024-37.7856-30.72-68.3008-68.4032-68.4032z m-7.68 76.0832v68.1984H81.1008v-68.1984h861.696zM81.1008 878.2848V289.8944h861.696v588.288l-861.696 0.1024z m552.0384-514.048L454.4512 838.5536a37.9904 37.9904 0 0 1-49.0496 22.1184 37.9904 37.9904 0 0 1-22.1184-49.0496l178.5856-474.3168c7.9872-19.456 30.3104-28.672 49.664-20.6848a38.2976 38.2976 0 0 1 21.6064 47.616zM325.2224 542.5152l-74.0352 74.0352 74.0352 74.1376a37.92896 37.92896 0 0 1-0.9216 53.76 38.03136 38.03136 0 0 1-52.8384 0l-100.9664-100.9664a37.888 37.888 0 0 1 0-53.6576l100.9664-100.864a38.01088 38.01088 0 0 1 53.6576 2.4576 37.7856 37.7856 0 0 1 0.1024 51.0976z m528.896-32.4608a38.01088 38.01088 0 0 1 0 53.76l-100.9664 100.9664a37.98016 37.98016 0 0 1-53.6576 0.1024l-0.1024-0.1024a38.01088 38.01088 0 0 1 0-53.76l74.1376-74.1376-74.1376-74.1376a38.01088 38.01088 0 1 1 53.76-53.76l100.9664 101.0688z" p-id="2518"></path></svg>