<svg t="1638846592440" class="asa-icon" viewBox="0 0 1024 1024" version="1.1" xmlns="http://www.w3.org/2000/svg" p-id="1521" width="200" height="200"><path d="M616.589074 916.978622h-209.178148c-12.16152 0-21.890736 9.729216-21.890736 21.890737s9.729216 21.890736 21.890736 21.890736h209.178148c12.16152 0 21.890736-9.729216 21.890736-21.890736s-9.729216-21.890736-21.890736-21.890737zM584.969121 980.218527h-145.938242c-12.16152 0-21.890736 9.729216-21.890736 21.890737s9.729216 21.890736 21.890736 21.890736h145.938242c12.16152 0 21.890736-9.729216 21.890736-21.890736 0-14.593824-9.729216-21.890736-21.890736-21.890737zM137.425178 447.543943H54.726841c-12.16152 0-21.890736 9.729216-21.890736 21.890736s9.729216 21.890736 21.890736 21.890737h82.698337c12.16152 0 21.890736-9.729216 21.890736-21.890737s-9.729216-21.890736-21.890736-21.890736z m831.847981 0h-82.698337c-12.16152 0-21.890736 9.729216-21.890736 21.890736s9.729216 21.890736 21.890736 21.890737h82.698337c12.16152 0 21.890736-9.729216 21.890736-21.890737s-9.729216-21.890736-21.890736-21.890736zM212.826603 734.555819L171.477435 775.904988c-7.296912 7.296912-7.296912 21.890736 0 29.187649s21.890736 7.296912 29.187648 0l41.349169-41.349169c7.296912-7.296912 7.296912-21.890736 0-29.187649-4.864608-7.296912-19.458432-7.296912-29.187649 0zM818.470309 131.344418L779.553444 172.693587c-7.296912 7.296912-7.296912 21.890736 0 29.187648s21.890736 7.296912 29.187649 0l41.349168-41.349168c7.296912-7.296912 7.296912-21.890736 0-29.187649-9.729216-7.296912-21.890736-7.296912-31.619952 0zM215.258907 201.881235c7.296912 7.296912 21.890736 7.296912 29.187649 0s7.296912-21.890736 0-29.187648L203.097387 131.344418c-7.296912-7.296912-21.890736-7.296912-29.187648 0s-7.296912 21.890736 0 29.187649l41.349168 41.349168z m593.482186 532.674584c-7.296912-7.296912-21.890736-7.296912-29.187649 0s-7.296912 21.890736 0 29.187649l41.349169 41.349169c7.296912 7.296912 21.890736 7.296912 29.187648 0s7.296912-21.890736 0-29.187649l-41.349168-41.349169zM512 124.047506c12.16152 0 21.890736-9.729216 21.890736-21.890736V21.890736c0-12.16152-9.729216-21.890736-21.890736-21.890736s-21.890736 9.729216-21.890736 21.890736v82.698338c0 9.729216 9.729216 19.458432 21.890736 19.458432z m0 41.349169c-172.693587 0-311.334917 138.64133-311.334917 311.334916 0 111.885986 58.375297 209.178147 145.938242 265.121141V851.306413c0 21.890736 19.458432 41.349169 41.349169 41.349169h250.527316c21.890736 0 41.349169-19.458432 41.349169-41.349169v-109.453681c87.562945-55.942993 145.938242-153.235154 145.938242-265.121141-2.432304-170.261283-141.073634-311.334917-313.767221-311.334916z m145.938242 542.4038c-12.16152 7.296912-19.458432 21.890736-19.458432 34.052257V851.306413h-104.589074v-179.990499l99.724466-97.292161c7.296912-7.296912 7.296912-19.458432 0-29.187648-7.296912-7.296912-21.890736-7.296912-29.187649 0L512 639.695962l-92.427553-89.995249c-7.296912-7.296912-21.890736-7.296912-29.187649 0-7.296912 7.296912-7.296912 19.458432 0 29.187648l99.724466 97.292162v179.990498h-104.589074v-109.453681c0-14.593824-7.296912-26.755344-19.458432-34.052257-80.266033-51.078385-126.47981-136.209026-126.47981-228.636579 0-148.370546 121.615202-269.985748 269.985748-269.985749S779.553444 335.657957 779.553444 484.028504c2.432304 87.562945-43.781473 175.125891-121.615202 223.771971z" fill="currentColor" p-id="1522"></path><path d="M781.985748 479.163895c0-148.370546-121.615202-269.985748-269.985748-269.985748s-269.985748 121.615202-269.985748 269.985748c0 94.859857 46.213777 179.990499 126.47981 228.63658 12.16152 7.296912 19.458432 21.890736 19.458432 34.052257V851.306413h104.589074v-179.990499l-99.724466-97.292161c-7.296912-7.296912-7.296912-21.890736 0-29.187648 7.296912-7.296912 21.890736-7.296912 29.187649 0l92.427553 89.995249 92.427553-89.995249c7.296912-7.296912 21.890736-7.296912 29.187649 0 7.296912 7.296912 7.296912 21.890736 0 29.187648l-99.724466 97.292161V851.306413h104.589074v-109.453681c0-14.593824 7.296912-29.187648 19.458432-34.052257 75.401425-48.646081 121.615202-136.209026 121.615202-228.63658zM424.437055 316.199525c-48.646081 31.619952-82.698337 80.266033-99.724466 136.209026-2.432304 12.16152-12.16152 19.458432-24.32304 19.458432H293.092637c-14.593824-4.864608-21.890736-17.026128-17.026129-31.619952 19.458432-65.672209 60.807601-124.047506 119.182898-162.964371 12.16152-7.296912 26.755344-4.864608 34.052257 7.296912 9.729216 7.296912 7.296912 24.32304-4.864608 31.619953z" fill="currentColor" p-id="1523"></path></svg>